<?xml version="1.0" encoding="UTF-8" standalone="no"?>
<!-- Created with Inkscape (http://www.inkscape.org/) -->

<svg
   xmlns:dc="http://purl.org/dc/elements/1.1/"
   xmlns:cc="http://creativecommons.org/ns#"
   xmlns:rdf="http://www.w3.org/1999/02/22-rdf-syntax-ns#"
   xmlns:svg="http://www.w3.org/2000/svg"
   xmlns="http://www.w3.org/2000/svg"
   xmlns:sodipodi="http://sodipodi.sourceforge.net/DTD/sodipodi-0.dtd"
   xmlns:inkscape="http://www.inkscape.org/namespaces/inkscape"
   width="744.09448"
   height="1052.3622"
   id="svg2"
   version="1.1"
   inkscape:version="0.91 r"
   sodipodi:docname="spur_gear_dimensions_de.svg">
  <sodipodi:namedview
     id="base"
     pagecolor="#ffffff"
     bordercolor="#666666"
     borderopacity="1.0"
     inkscape:pageopacity="0.0"
     inkscape:pageshadow="2"
     inkscape:zoom="3.1792763"
     inkscape:cx="221.12184"
     inkscape:cy="902.49869"
     inkscape:document-units="mm"
     inkscape:current-layer="g13674"
     showgrid="false"
     units="mm"
     inkscape:window-width="1600"
     inkscape:window-height="848"
     inkscape:window-x="0"
     inkscape:window-y="0"
     inkscape:window-maximized="1"
     inkscape:snap-object-midpoints="false"
     inkscape:snap-grids="true"
     inkscape:snap-center="true"
     inkscape:snap-bbox="true"
     showguides="true"
     inkscape:guide-bbox="true"
     inkscape:object-nodes="true"
     inkscape:snap-nodes="true"
     inkscape:snap-to-guides="true"
     inkscape:snap-page="false"
     inkscape:bbox-paths="true"
     inkscape:bbox-nodes="true"
     inkscape:snap-bbox-edge-midpoints="true">
    <inkscape:grid
       spacingy="1mm"
       spacingx="1mm"
       dotted="true"
       units="mm"
       snapvisiblegridlinesonly="true"
       enabled="true"
       visible="true"
       empspacing="5"
       id="grid2987"
       type="xygrid" />
  </sodipodi:namedview>
  <defs
     id="defs4">
    <marker
       style="overflow:visible;"
       id="Arrow1Lend"
       refX="0.0"
       refY="0.0"
       orient="auto"
       inkscape:stockid="Arrow1Lend">
      <path
         transform="scale(0.8) rotate(180) translate(12.5,0)"
         style="fill-rule:evenodd;stroke:#000000;stroke-width:1.0pt;"
         d="M 0.0,0.0 L 5.0,-5.0 L -12.5,0.0 L 5.0,5.0 L 0.0,0.0 z "
         id="path4215" />
    </marker>
    <marker
       style="overflow:visible"
       id="Arrow1Lstart"
       refX="0.0"
       refY="0.0"
       orient="auto"
       inkscape:stockid="Arrow1Lstart">
      <path
         transform="scale(0.8) translate(12.5,0)"
         style="fill-rule:evenodd;stroke:#000000;stroke-width:1.0pt"
         d="M 0.0,0.0 L 5.0,-5.0 L -12.5,0.0 L 5.0,5.0 L 0.0,0.0 z "
         id="path4212" />
    </marker>
  </defs>
  <metadata
     id="metadata7">
    <rdf:RDF>
      <cc:Work
         rdf:about="">
        <dc:format>image/svg+xml</dc:format>
        <dc:type
           rdf:resource="http://purl.org/dc/dcmitype/StillImage" />
        <dc:title></dc:title>
      </cc:Work>
    </rdf:RDF>
  </metadata>
  <g
     transform="translate(0,-2.5390623e-6)"
     id="layer1"
     inkscape:groupmode="layer"
     inkscape:label="Layer 1">
    <text
       xml:space="preserve"
       style="font-size:10px;font-style:normal;font-variant:normal;font-weight:normal;font-stretch:normal;line-height:125%;letter-spacing:0px;word-spacing:0px;fill:#000000;fill-opacity:1;stroke:none;font-family:Liberation Serif;-inkscape-font-specification:Liberation Serif"
       x="311.93765"
       y="298.60248"
       id="text4132"
       sodipodi:linespacing="125%"
       transform="translate(0,2.5390623e-6)"><tspan
         sodipodi:role="line"
         id="tspan4134"
         x="311.93765"
         y="298.60248" /></text>
    <g
       id="g13674">
      <g
         id="g4157"
         inkscape:label="Gear32"
         transform="translate(146.29921,173.38581)"
         info="N:32; Pitch:11.1316275127; Pressure Angle: 25.0"
         style="fill:none"
         inkscape:transform-center-x="1.6162694"
         inkscape:transform-center-y="-1.9965681">
        <path
           id="path4159"
           style="fill:#e0e0e0;fill-opacity:0.70720712;stroke:#000000"
           d="m 53.0075,-3.8836 1.4446,0.3449 1.4483,0.4755 1.4479,0.5902 1.4437,0.6958 1.4362,0.7956 0.008,0.9816 -0.008,0.9816 -1.4362,0.7956 -1.4437,0.6958 -1.4479,0.5902 -1.4483,0.4755 -1.4446,0.3449 -0.1138,1.326 -0.147,1.3227 1.3495,0.62 1.3277,0.749 1.3049,0.8613 1.2803,0.9641 1.2533,1.0605 -0.1836,0.9643 -0.1993,0.9611 -1.5638,0.5002 -1.5518,0.4008 -1.5352,0.2964 -1.5133,0.1838 -1.484,0.0564 -0.3704,1.2783 -0.4022,1.2686 1.2026,0.8714 1.1561,0.9936 1.1118,1.0994 1.0676,1.1954 1.0223,1.2846 -0.3682,0.9099 -0.383,0.9038 -1.6313,0.1854 -1.6002,0.0904 -1.5635,-0.0088 -1.5201,-0.1149 -1.4665,-0.2342 -0.6126,1.1815 -0.642,1.1657 1.0095,1.0893 0.94,1.2 0.876,1.2952 0.8138,1.3806 0.7522,1.4595 -0.5387,0.8206 -0.552,0.8116 -1.6361,-0.1363 -1.5871,-0.2236 -1.5318,-0.3136 -1.4684,-0.4093 -1.3927,-0.5158 -0.8313,1.0393 -0.8571,1.0181 0.7776,1.2653 0.6879,1.3603 0.6064,1.4412 0.5289,1.5129 0.4529,1.5781 -0.6884,0.6997 -0.6997,0.6884 -1.5781,-0.4529 -1.5129,-0.5289 -1.4412,-0.6064 -1.3603,-0.6879 -1.2653,-0.7776 -1.0181,0.8571 -1.0393,0.8313 0.5158,1.3927 0.4093,1.4684 0.3136,1.5318 0.2236,1.5871 0.1363,1.6361 -0.8116,0.552 -0.8206,0.5387 -1.4595,-0.7522 -1.3806,-0.8138 -1.2952,-0.876 -1.2,-0.94 -1.0893,-1.0095 -1.1657,0.642 -1.1815,0.6126 0.2342,1.4665 0.1149,1.5201 0.0088,1.5635 -0.0904,1.6002 -0.1854,1.6313 -0.9038,0.383 -0.9099,0.3682 -1.2846,-1.0223 -1.1954,-1.0676 -1.0994,-1.1118 -0.9936,-1.1561 -0.8714,-1.2026 -1.2686,0.4022 -1.2783,0.3704 -0.0564,1.484 -0.1838,1.5133 -0.2964,1.5352 -0.4008,1.5518 -0.5002,1.5638 -0.9611,0.1993 -0.9643,0.1836 L 9.7267,58.0091 8.7626,56.7288 7.9013,55.4239 7.1523,54.0962 6.5323,52.7467 5.2096,52.8937 3.8836,53.0075 3.5387,54.4521 3.0632,55.9004 2.473,57.3483 1.7772,58.792 0.9816,60.2282 0,60.2362 -0.9816,60.2282 -1.7772,58.792 -2.473,57.3483 l -0.5902,-1.4479 -0.4755,-1.4483 -0.3449,-1.4446 -1.326,-0.1138 -1.3227,-0.147 -0.62,1.3495 -0.749,1.3277 -0.8613,1.3049 -0.9641,1.2803 -1.0605,1.2533 -0.9643,-0.1836 -0.9611,-0.1993 -0.5002,-1.5638 -0.4008,-1.5518 -0.2964,-1.5352 -0.1838,-1.5133 -0.0564,-1.484 -1.2783,-0.3704 -1.2686,-0.4022 -0.8714,1.2026 -0.9936,1.1561 -1.0994,1.1118 -1.1954,1.0676 -1.2846,1.0223 -0.9099,-0.3682 -0.9038,-0.383 -0.1854,-1.6313 -0.0904,-1.6002 0.0088,-1.5635 0.1149,-1.5201 0.2342,-1.4665 -1.1815,-0.6126 -1.1657,-0.642 -1.0893,1.0095 -1.2,0.94 -1.2952,0.876 -1.3806,0.8138 -1.4595,0.7522 -0.8206,-0.5387 -0.8116,-0.552 0.1363,-1.6361 0.2236,-1.5871 0.3136,-1.5318 0.4093,-1.4684 0.5158,-1.3927 -1.0393,-0.8313 -1.0181,-0.8571 -1.2653,0.7776 -1.3603,0.6879 -1.4412,0.6064 -1.5129,0.5289 -1.5781,0.4529 -0.6997,-0.6884 -0.6884,-0.6997 0.4529,-1.5781 0.5289,-1.5129 0.6064,-1.4412 0.6879,-1.3603 0.7776,-1.2653 -0.8571,-1.0181 -0.8313,-1.0393 -1.3927,0.5158 -1.4684,0.4093 -1.5318,0.3136 -1.5871,0.2236 -1.6361,0.1363 -0.552,-0.8116 -0.5387,-0.8206 0.7522,-1.4595 0.8138,-1.3806 0.876,-1.2952 0.94,-1.2 1.0095,-1.0893 -0.642,-1.1657 -0.6126,-1.1815 -1.4665,0.2342 -1.5201,0.1149 -1.5635,0.0088 -1.6002,-0.0904 -1.6313,-0.1854 -0.383,-0.9038 -0.3682,-0.9099 1.0223,-1.2846 1.0676,-1.1954 1.1118,-1.0994 1.1561,-0.9936 1.2026,-0.8714 -0.4022,-1.2686 -0.3704,-1.2783 -1.484,-0.0564 -1.5133,-0.1838 -1.5352,-0.2964 -1.5518,-0.4008 -1.5638,-0.5002 -0.1993,-0.9611 -0.1836,-0.9643 1.2533,-1.0605 1.2803,-0.9641 1.3049,-0.8613 1.3277,-0.749 1.3495,-0.62 -0.147,-1.3227 -0.1138,-1.326 L -54.4521,3.5387 -55.9004,3.0632 -57.3483,2.473 -58.792,1.7772 -60.2282,0.9816 -60.2362,0 l 0.008,-0.9816 1.4362,-0.7956 1.4437,-0.6958 1.4479,-0.5902 1.4483,-0.4755 1.4446,-0.3449 0.1138,-1.326 0.147,-1.3227 -1.3495,-0.62 -1.3277,-0.749 -1.3049,-0.8613 -1.2803,-0.9641 -1.2533,-1.0605 0.1836,-0.9643 0.1993,-0.9611 1.5638,-0.5002 1.5518,-0.4008 1.5352,-0.2964 1.5133,-0.1838 1.484,-0.0564 0.3704,-1.2783 0.4022,-1.2686 -1.2026,-0.8714 -1.1561,-0.9936 -1.1118,-1.0994 -1.0676,-1.1954 -1.0223,-1.2846 0.3682,-0.9099 0.383,-0.9038 1.6313,-0.1854 1.6002,-0.0904 1.5635,0.0088 1.5201,0.1149 1.4665,0.2342 0.6126,-1.1815 0.642,-1.1657 -1.0095,-1.0893 -0.94,-1.2 -0.876,-1.2952 -0.8138,-1.3806 -0.7522,-1.4595 0.5387,-0.8206 0.552,-0.8116 1.6361,0.1363 1.5871,0.2236 1.5318,0.3136 1.4684,0.4093 1.3927,0.5158 0.8313,-1.0393 0.8571,-1.0181 -0.7776,-1.2653 -0.6879,-1.3603 -0.6064,-1.4412 -0.5289,-1.5129 -0.4529,-1.5781 0.6884,-0.6997 0.6997,-0.6884 1.5781,0.4529 1.5129,0.5289 1.4412,0.6064 1.3603,0.6879 1.2653,0.7776 1.0181,-0.8571 1.0393,-0.8313 -0.5158,-1.3927 -0.4093,-1.4684 -0.3136,-1.5318 -0.2236,-1.5871 -0.1363,-1.6361 0.8116,-0.552 0.8206,-0.5387 1.4595,0.7522 1.3806,0.8138 1.2952,0.876 1.2,0.94 1.0893,1.0095 1.1657,-0.642 1.1815,-0.6126 -0.2342,-1.4665 -0.1149,-1.5201 -0.0088,-1.5635 0.0904,-1.6002 0.1854,-1.6313 0.9038,-0.383 0.9099,-0.3682 1.2846,1.0223 1.1954,1.0676 1.0994,1.1118 0.9936,1.1561 0.8714,1.2026 1.2686,-0.4022 1.2783,-0.3704 0.0564,-1.484 0.1838,-1.5133 0.2964,-1.5352 0.4008,-1.5518 0.5002,-1.5638 0.9611,-0.1993 0.9643,-0.1836 1.0605,1.2533 0.9641,1.2803 0.8613,1.3049 0.749,1.3277 0.62,1.3495 1.3227,-0.147 1.326,-0.1138 0.3449,-1.4446 0.4755,-1.4483 0.5902,-1.4479 0.6958,-1.4437 0.7956,-1.4362 0.9816,-0.008 0.9816,0.008 0.7956,1.4362 0.6958,1.4437 0.5902,1.4479 0.4755,1.4483 0.3449,1.4446 1.326,0.1138 1.3227,0.147 0.62,-1.3495 0.749,-1.3277 0.8613,-1.3049 0.9641,-1.2803 1.0605,-1.2533 0.9643,0.1836 0.9611,0.1993 0.5002,1.5638 0.4008,1.5518 0.2964,1.5352 0.1838,1.5133 0.0564,1.484 1.2783,0.3704 1.2686,0.4022 0.8714,-1.2026 0.9936,-1.1561 1.0994,-1.1118 1.1954,-1.0676 1.2846,-1.0223 0.9099,0.3682 0.9038,0.383 0.1854,1.6313 0.0904,1.6002 -0.0088,1.5635 -0.1149,1.5201 -0.2342,1.4665 1.1815,0.6126 1.1657,0.642 1.0893,-1.0095 1.2,-0.94 1.2952,-0.876 1.3806,-0.8138 1.4595,-0.7522 0.8206,0.5387 0.8116,0.552 -0.1363,1.6361 -0.2236,1.5871 -0.3136,1.5318 -0.4093,1.4684 -0.5158,1.3927 1.0393,0.8313 1.0181,0.8571 1.2653,-0.7776 1.3603,-0.6879 1.4412,-0.6064 1.5129,-0.5289 1.5781,-0.4529 0.6997,0.6884 0.6884,0.6997 -0.4529,1.5781 -0.5289,1.5129 -0.6064,1.4412 -0.6879,1.3603 -0.7776,1.2653 0.8571,1.0181 0.8313,1.0393 1.3927,-0.5158 1.4684,-0.4093 1.5318,-0.3136 1.5871,-0.2236 1.6361,-0.1363 0.552,0.8116 0.5387,0.8206 -0.7522,1.4595 -0.8138,1.3806 -0.876,1.2952 -0.94,1.2 -1.0095,1.0893 0.642,1.1657 0.6126,1.1815 1.4665,-0.2342 1.5201,-0.1149 1.5635,-0.0088 1.6002,0.0904 1.6313,0.1854 0.383,0.9038 0.3682,0.9099 -1.0223,1.2846 -1.0676,1.1954 -1.1118,1.0994 -1.1561,0.9936 -1.2026,0.8714 0.4022,1.2686 0.3704,1.2783 1.484,0.0564 1.5133,0.1838 1.5352,0.2964 1.5518,0.4008 1.5638,0.5002 0.1993,0.9611 0.1836,0.9643 -1.2533,1.0605 -1.2803,0.9641 -1.3049,0.8613 -1.3277,0.749 -1.3495,0.62 0.147,1.3227 z M 20.793357,4.429134 A 21.259843,21.259843 0 0 1 4.429134,20.793357 l 0,23.275968 A 44.291339,44.291339 0 0 0 44.069325,4.429134 Z M -4.429134,20.793357 A 21.259843,21.259843 0 0 1 -20.793357,4.429134 l -23.275968,0 A 44.291339,44.291339 0 0 0 -4.429134,44.069325 Z M -20.793357,-4.429134 a 21.259843,21.259843 0 0 1 16.364223,-16.364223 l 0,-23.275968 A 44.291339,44.291339 0 0 0 -44.069325,-4.429134 Z M 4.429134,-20.793357 a 21.259843,21.259843 0 0 1 16.364223,16.364223 l 23.275968,0 A 44.291339,44.291339 0 0 0 4.429134,-44.069325 Z M 0,10.629921 a 10.629921,10.629921 0 0 0 0,-21.259842 10.629921,10.629921 0 0 0 0,21.259842"
           inkscape:connector-curvature="0" />
        <path
           id="path4161"
           inkscape:label="Center cross"
           style="fill:none;stroke:#ff0000;stroke-width:0.70866144;stroke-miterlimit:4;stroke-dasharray:none;stroke-opacity:1"
           d="m -3.7105425,0 7.421085,0 M 0,-3.7105425 0,3.7105425"
           inkscape:connector-curvature="0" />
        <circle
           id="circle4163"
           inkscape:label="Pitch circle"
           style="fill:none;stroke:#ff0000;stroke-width:0.35433072;stroke-miterlimit:4;stroke-dasharray:none;stroke-opacity:1"
           r="56.692913"
           cy="0"
           cx="0" />
      </g>
      <g
         id="g9350"
         inkscape:transform-center-y="21.440942"
         transform="matrix(0.63695873,0.77089791,-0.77089791,0.63695873,255.05394,-229.02436)"
         inkscape:transform-center-x="25.949521"
         style="stroke:#0000ff;stroke-width:0.35433072;stroke-miterlimit:4;stroke-dasharray:none;stroke-opacity:1">
        <g
           inkscape:transform-center-y="7.7520842"
           id="g9264"
           style="stroke:#0000ff;stroke-width:0.35433072;stroke-miterlimit:4;stroke-dasharray:none;stroke-opacity:1">
          <path
             style="fill:none;stroke:#0000ff;stroke-width:0.35433072;stroke-miterlimit:4;stroke-dasharray:none;stroke-opacity:1"
             d="m 230.31496,340.15746 0,14.17323"
             id="path4202"
             inkscape:connector-curvature="0"
             transform="translate(0,2.5390623e-6)" />
          <path
             style="fill:none;stroke:#0000ff;stroke-width:0.35433072;stroke-miterlimit:4;stroke-dasharray:none;stroke-opacity:1"
             d="m 251.5748,340.15746 0,14.17323"
             id="path4204"
             inkscape:connector-curvature="0"
             transform="translate(0,2.5390623e-6)" />
          <path
             style="fill:none;stroke:#0000ff;stroke-width:0.35433072;stroke-miterlimit:4;stroke-dasharray:none;stroke-opacity:1;marker-start:none;marker-end:none"
             d="m 230.31496,354.33069 21.25984,0"
             id="path4206"
             inkscape:connector-curvature="0"
             transform="translate(0,2.5390623e-6)" />
          <path
             style="fill:none;stroke:#0000ff;stroke-width:0.35433072;stroke-miterlimit:4;stroke-dasharray:none;stroke-opacity:1;marker-start:none;marker-end:url(#Arrow1Lstart)"
             d="m 233.85827,354.33069 -3.54331,0 0,0"
             id="path5206"
             inkscape:connector-curvature="0"
             transform="translate(0,2.5390623e-6)" />
          <path
             style="fill:none;stroke:#0000ff;stroke-width:0.35433072;stroke-miterlimit:4;stroke-dasharray:none;stroke-opacity:1;marker-end:url(#Arrow1Lend)"
             d="m 248.03149,354.33069 3.54331,0"
             id="path9074"
             inkscape:connector-curvature="0" />
          <text
             xml:space="preserve"
             style="font-style:normal;font-variant:normal;font-weight:normal;font-stretch:normal;font-size:6px;line-height:125%;font-family:'Liberation Serif';-inkscape-font-specification:'Liberation Serif';letter-spacing:0px;word-spacing:0px;fill:#000000;fill-opacity:1;stroke:#0000ff;stroke-width:0.35433072;stroke-miterlimit:4;stroke-dasharray:none;stroke-opacity:1"
             x="235.13049"
             y="358.50735"
             id="text9260"
             sodipodi:linespacing="125%"><tspan
               sodipodi:role="line"
               id="tspan9262"
               x="235.13049"
               y="358.50735">6mm</tspan></text>
        </g>
        <g
           style="stroke:#0000ff;stroke-width:0.17716545;stroke-miterlimit:4;stroke-dasharray:none;stroke-opacity:1"
           inkscape:transform-center-x="-1.0040576e-05"
           transform="matrix(1.9999989,0,0,1.9999989,-240.9446,-340.15708)"
           id="g9291"
           inkscape:transform-center-y="15.504186">
          <path
             sodipodi:nodetypes="cc"
             transform="translate(0,2.5390623e-6)"
             inkscape:connector-curvature="0"
             id="path9293"
             d="m 230.31495,340.15745 1e-5,14.17324"
             style="fill:none;stroke:#0000ff;stroke-width:0.17716545;stroke-miterlimit:4;stroke-dasharray:none;stroke-opacity:1" />
          <path
             transform="translate(0,2.5390623e-6)"
             inkscape:connector-curvature="0"
             id="path9295"
             d="m 251.5748,340.15746 0,14.17323"
             style="fill:none;stroke:#0000ff;stroke-width:0.17716545;stroke-miterlimit:4;stroke-dasharray:none;stroke-opacity:1" />
          <g
             transform="translate(5.7086477e-7,-1.7716509)"
             id="g9335"
             style="stroke:#0000ff;stroke-width:0.17716545;stroke-miterlimit:4;stroke-dasharray:none;stroke-opacity:1">
            <path
               style="fill:none;stroke:#0000ff;stroke-width:0.17716545;stroke-miterlimit:4;stroke-dasharray:none;stroke-opacity:1;marker-start:none;marker-end:none"
               d="m 230.31496,354.33069 21.25984,0"
               id="path9297"
               inkscape:connector-curvature="0"
               transform="translate(0,2.5390623e-6)" />
            <path
               style="fill:none;stroke:#0000ff;stroke-width:0.17716545;stroke-miterlimit:4;stroke-dasharray:none;stroke-opacity:1;marker-start:none;marker-end:url(#Arrow1Lstart)"
               d="m 233.85827,354.33069 -3.54331,0 0,0"
               id="path9299"
               inkscape:connector-curvature="0"
               transform="translate(0,2.5390623e-6)" />
            <path
               style="fill:none;stroke:#0000ff;stroke-width:0.17716545;stroke-miterlimit:4;stroke-dasharray:none;stroke-opacity:1;marker-end:url(#Arrow1Lend)"
               d="m 248.03149,354.33069 3.54331,0"
               id="path9301"
               inkscape:connector-curvature="0" />
          </g>
          <text
             sodipodi:linespacing="125%"
             id="text9303"
             y="355.26227"
             x="236.96268"
             style="font-style:normal;font-variant:normal;font-weight:normal;font-stretch:normal;font-size:6px;line-height:125%;font-family:'Liberation Serif';-inkscape-font-specification:'Liberation Serif';letter-spacing:0px;word-spacing:0px;fill:#000000;fill-opacity:1;stroke:#0000ff;stroke-width:0.17716545;stroke-miterlimit:4;stroke-dasharray:none;stroke-opacity:1"
             xml:space="preserve"><tspan
               style="font-size:3.00000167px;stroke:#0000ff;stroke-width:0.17716545;stroke-miterlimit:4;stroke-dasharray:none;stroke-opacity:1"
               y="355.26227"
               x="236.96268"
               id="tspan9305"
               sodipodi:role="line">12mm</tspan></text>
        </g>
        <g
           inkscape:transform-center-y="34.233729"
           id="g9340"
           style="stroke:#0000ff;stroke-width:0.35433072;stroke-miterlimit:4;stroke-dasharray:none;stroke-opacity:1">
          <path
             style="fill:none;stroke:#0000ff;stroke-width:0.35433072;stroke-miterlimit:4;stroke-dasharray:none;stroke-opacity:1"
             d="m 184.25197,340.15746 0,67.32284"
             id="path9309"
             inkscape:connector-curvature="0"
             sodipodi:nodetypes="cc" />
          <path
             style="fill:none;stroke:#0000ff;stroke-width:0.35433072;stroke-miterlimit:4;stroke-dasharray:none;stroke-opacity:1"
             d="m 297.6378,340.15746 0,67.32284"
             id="path9311"
             inkscape:connector-curvature="0"
             sodipodi:nodetypes="cc" />
          <g
             id="g9330"
             transform="translate(-3.4724409e-5,-11.811032)"
             style="stroke:#0000ff;stroke-width:0.35433072;stroke-miterlimit:4;stroke-dasharray:none;stroke-opacity:1">
            <path
               inkscape:connector-curvature="0"
               id="path9313"
               d="m 184.25206,415.74802 113.38577,0"
               style="fill:none;stroke:#0000ff;stroke-width:0.35433072;stroke-miterlimit:4;stroke-dasharray:none;stroke-opacity:1;marker-start:none;marker-end:none" />
            <path
               inkscape:connector-curvature="0"
               id="path9315"
               d="m 203.14971,415.74802 -18.89765,0 0,0"
               style="fill:none;stroke:#0000ff;stroke-width:0.35433072;stroke-miterlimit:4;stroke-dasharray:none;stroke-opacity:1;marker-start:none;marker-end:url(#Arrow1Lstart)" />
            <path
               inkscape:connector-curvature="0"
               id="path9317"
               d="m 278.74018,415.74802 18.89765,0"
               style="fill:none;stroke:#0000ff;stroke-width:0.35433072;stroke-miterlimit:4;stroke-dasharray:none;stroke-opacity:1;marker-end:url(#Arrow1Lend)" />
          </g>
          <text
             xml:space="preserve"
             style="font-style:normal;font-variant:normal;font-weight:normal;font-stretch:normal;font-size:31.99998665px;line-height:125%;font-family:'Liberation Serif';-inkscape-font-specification:'Liberation Serif';letter-spacing:0px;word-spacing:0px;fill:#000000;fill-opacity:1;stroke:#0000ff;stroke-width:0.35433072;stroke-miterlimit:4;stroke-dasharray:none;stroke-opacity:1"
             x="235.46693"
             y="408.65491"
             id="text9319"
             sodipodi:linespacing="125%"><tspan
               sodipodi:role="line"
               id="tspan9321"
               x="235.46693"
               y="408.65491"
               style="font-size:6px;stroke:#0000ff;stroke-width:0.35433072;stroke-miterlimit:4;stroke-dasharray:none;stroke-opacity:1">32mm</tspan></text>
        </g>
      </g>
      <g
         id="g10130"
         inkscape:transform-center-x="-32.432529"
         transform="translate(-94.64567,-166.77165)"
         style="stroke:#0000ff;stroke-width:0.35433072;stroke-miterlimit:4;stroke-dasharray:none;stroke-opacity:1">
        <text
           sodipodi:linespacing="125%"
           id="text9380"
           y="341.98157"
           x="264.87692"
           style="font-style:normal;font-variant:normal;font-weight:normal;font-stretch:normal;font-size:10px;line-height:125%;font-family:'Liberation Serif';-inkscape-font-specification:'Liberation Serif';letter-spacing:0px;word-spacing:0px;fill:#000000;fill-opacity:1;stroke:#0000ff;stroke-width:0.35433072;stroke-miterlimit:4;stroke-dasharray:none;stroke-opacity:1"
           xml:space="preserve"><tspan
             style="font-size:6px;stroke:#0000ff;stroke-width:0.35433072;stroke-miterlimit:4;stroke-dasharray:none;stroke-opacity:1"
             y="341.98157"
             x="264.87692"
             id="tspan9382"
             sodipodi:role="line">2.5mm</tspan></text>
        <path
           sodipodi:nodetypes="cc"
           transform="translate(0,2.5390623e-6)"
           inkscape:connector-curvature="0"
           id="path9384"
           d="m 272.83465,322.44092 0,13.2874"
           style="fill:none;stroke:#0000ff;stroke-width:0.35433072;stroke-miterlimit:4;stroke-dasharray:none;stroke-opacity:1;marker-end:url(#Arrow1Lend)" />
        <path
           sodipodi:nodetypes="cc"
           transform="translate(0,2.5390623e-6)"
           inkscape:connector-curvature="0"
           id="path9386"
           d="m 272.84188,344.58659 -0.007,13.2874"
           style="fill:none;stroke:#0000ff;stroke-width:0.35433072;stroke-miterlimit:4;stroke-dasharray:none;stroke-opacity:1;marker-start:url(#Arrow1Lstart);marker-end:none" />
      </g>
      <g
         id="g10146"
         transform="matrix(0.77131073,0.63645877,-0.63645877,0.77131073,183.36369,-300.20791)"
         inkscape:transform-center-y="-37.578545"
         inkscape:transform-center-x="-31.008663"
         style="stroke:#0000ff;stroke-width:0.35433072;stroke-miterlimit:4;stroke-dasharray:none;stroke-opacity:1">
        <text
           xml:space="preserve"
           style="font-style:normal;font-variant:normal;font-weight:normal;font-stretch:normal;font-size:10px;line-height:125%;font-family:'Liberation Serif';-inkscape-font-specification:'Liberation Serif';letter-spacing:0px;word-spacing:0px;fill:#000000;fill-opacity:1;stroke:#0000ff;stroke-width:0.35433072;stroke-miterlimit:4;stroke-dasharray:none;stroke-opacity:1"
           x="264.87692"
           y="341.98157"
           id="text10148"
           sodipodi:linespacing="125%"><tspan
             sodipodi:role="line"
             id="tspan10150"
             x="264.87692"
             y="341.98157"
             style="font-size:6px;stroke:#0000ff;stroke-width:0.35433072;stroke-miterlimit:4;stroke-dasharray:none;stroke-opacity:1">2.5mm</tspan></text>
        <path
           style="fill:none;stroke:#0000ff;stroke-width:0.35433072;stroke-miterlimit:4;stroke-dasharray:none;stroke-opacity:1;marker-end:url(#Arrow1Lend)"
           d="m 272.83465,322.44092 0,13.2874"
           id="path10152"
           inkscape:connector-curvature="0"
           transform="translate(0,2.5390623e-6)"
           sodipodi:nodetypes="cc" />
        <path
           style="fill:none;stroke:#0000ff;stroke-width:0.35433072;stroke-miterlimit:4;stroke-dasharray:none;stroke-opacity:1;marker-start:url(#Arrow1Lstart);marker-end:none"
           d="m 272.84188,344.58659 -0.007,13.2874"
           id="path10154"
           inkscape:connector-curvature="0"
           transform="translate(0,2.5390623e-6)"
           sodipodi:nodetypes="cc" />
      </g>
      <text
         xml:space="preserve"
         style="font-style:normal;font-variant:normal;font-weight:normal;font-stretch:normal;font-size:10px;line-height:125%;font-family:'Liberation Serif';-inkscape-font-specification:'Liberation Serif';letter-spacing:0px;word-spacing:0px;fill:#000000;fill-opacity:1;stroke:none"
         x="238.2059"
         y="182.6496"
         id="text10629"
         sodipodi:linespacing="125%"><tspan
           id="tspan10637"
           sodipodi:role="line"
           x="238.2059"
           y="182.6496">Durchmesser der Bohrung: 6.0 [mm]</tspan><tspan
           sodipodi:role="line"
           x="238.2059"
           y="195.1496"
           id="tspan10653" /></text>
      <text
         sodipodi:linespacing="125%"
         id="text10655"
         y="151.63831"
         x="237.86763"
         style="font-style:normal;font-variant:normal;font-weight:normal;font-stretch:normal;font-size:10px;line-height:125%;font-family:'Liberation Serif';-inkscape-font-specification:'Liberation Serif';letter-spacing:0px;word-spacing:0px;fill:#000000;fill-opacity:1;stroke:none"
         xml:space="preserve"><tspan
           y="151.63831"
           x="237.86763"
           id="tspan10657"
           sodipodi:role="line">Anzahl der Zähne: 32</tspan><tspan
           y="164.13831"
           x="237.86763"
           sodipodi:role="line"
           id="tspan10677">Module: 1.0</tspan><tspan
           id="tspan10679"
           y="176.63831"
           x="237.86763"
           sodipodi:role="line" /></text>
      <text
         xml:space="preserve"
         style="font-style:normal;font-variant:normal;font-weight:normal;font-stretch:normal;font-size:10px;line-height:125%;font-family:'Liberation Serif';-inkscape-font-specification:'Liberation Serif';letter-spacing:0px;word-spacing:0px;fill:#000000;fill-opacity:1;stroke:none"
         x="57.220879"
         y="50.719841"
         id="text10222"
         sodipodi:linespacing="125%"><tspan
           sodipodi:role="line"
           id="tspan10224"
           x="57.220879"
           y="50.719841"
           style="font-size:16px">Abmessungen eines Stirnrades</tspan></text>
      <path
         style="fill:none;stroke:#0000ff;stroke-width:0.35433072;stroke-miterlimit:4;stroke-dasharray:none;stroke-opacity:1;marker-end:url(#Arrow1Lend)"
         d="m 237.95742,224.19196 c 0.44984,-0.22492 -49.99902,12.71581 -65.46843,-0.54296"
         id="path10285"
         inkscape:connector-curvature="0"
         sodipodi:nodetypes="cc" />
      <path
         sodipodi:nodetypes="cc"
         inkscape:connector-curvature="0"
         id="path10471"
         d="M 235.81422,94.168487 C 181.30725,98.403063 160.1613,136.03523 147.34614,170.6183"
         style="fill:none;stroke:#0000ff;stroke-width:0.35433072;stroke-miterlimit:4;stroke-dasharray:none;stroke-opacity:1;marker-end:url(#Arrow1Lend)" />
      <text
         sodipodi:linespacing="125%"
         id="text11033"
         y="75.5709"
         x="56.645203"
         style="font-style:normal;font-variant:normal;font-weight:normal;font-stretch:normal;font-size:10px;line-height:125%;font-family:'Liberation Serif';-inkscape-font-specification:'Liberation Serif';letter-spacing:0px;word-spacing:0px;fill:#000000;fill-opacity:1;stroke:none"
         xml:space="preserve"><tspan
           id="tspan11053"
           y="75.5709"
           x="56.645203"
           sodipodi:role="line">Anzahl der Speichen: 4</tspan><tspan
           id="tspan3072"
           y="88.0709"
           x="56.645203"
           sodipodi:role="line">(gleich Anzahl der Löcher)</tspan></text>
      <text
         xml:space="preserve"
         style="font-style:normal;font-variant:normal;font-weight:normal;font-stretch:normal;font-size:10px;line-height:125%;font-family:'Liberation Serif';-inkscape-font-specification:'Liberation Serif';letter-spacing:0px;word-spacing:0px;fill:#000000;fill-opacity:1;stroke:none"
         x="238.2059"
         y="190.67749"
         id="text11094"
         sodipodi:linespacing="125%"><tspan
           id="tspan11096"
           sodipodi:role="line"
           x="238.2059"
           y="190.67749" /><tspan
           id="tspan11098"
           sodipodi:role="line"
           x="238.2059"
           y="203.17749">Durchmesser der Nabe: 12.0 [mm]</tspan><tspan
           id="tspan11110"
           sodipodi:role="line"
           x="238.2059"
           y="215.67749" /><tspan
           sodipodi:role="line"
           x="238.2059"
           y="228.17749"
           id="tspan11112" /></text>
      <text
         xml:space="preserve"
         style="font-style:normal;font-variant:normal;font-weight:normal;font-stretch:normal;font-size:10px;line-height:125%;font-family:'Liberation Serif';-inkscape-font-specification:'Liberation Serif';letter-spacing:0px;word-spacing:0px;fill:#000000;fill-opacity:1;stroke:none"
         x="238.2059"
         y="118.61041"
         id="text11139"
         sodipodi:linespacing="125%"><tspan
           id="tspan11143"
           sodipodi:role="line"
           x="238.2059"
           y="118.61041">Breite der Speichen: 2.5 [mm]</tspan><tspan
           id="tspan3074"
           sodipodi:role="line"
           x="238.2059"
           y="131.11041">(gleich Breite des Rings)</tspan><tspan
           sodipodi:role="line"
           x="238.2059"
           y="143.61041"
           id="tspan11153" /></text>
      <text
         sodipodi:linespacing="125%"
         id="text11199"
         y="98.111816"
         x="238.2059"
         style="font-style:normal;font-variant:normal;font-weight:normal;font-stretch:normal;font-size:10px;line-height:125%;font-family:'Liberation Serif';-inkscape-font-specification:'Liberation Serif';letter-spacing:0px;word-spacing:0px;fill:#000000;fill-opacity:1;stroke:none"
         xml:space="preserve"><tspan
           y="98.111816"
           x="238.2059"
           sodipodi:role="line"
           id="tspan11203">Mittelkreuz einzeichnen: ja</tspan><tspan
           y="110.61182"
           x="238.2059"
           sodipodi:role="line"
           id="tspan11209" /><tspan
           id="tspan11211"
           y="123.11182"
           x="238.2059"
           sodipodi:role="line" /></text>
      <text
         xml:space="preserve"
         style="font-style:normal;font-variant:normal;font-weight:normal;font-stretch:normal;font-size:10px;line-height:125%;font-family:'Liberation Serif';-inkscape-font-specification:'Liberation Serif';letter-spacing:0px;word-spacing:0px;fill:#000000;fill-opacity:1;stroke:none"
         x="238.49399"
         y="222.88507"
         id="text11229"
         sodipodi:linespacing="125%"><tspan
           id="tspan11233"
           sodipodi:role="line"
           x="238.49399"
           y="222.88507">Teilkreis einzeichnen: ja  </tspan><tspan
           id="tspan11235"
           sodipodi:role="line"
           x="238.49399"
           y="235.38507">(Teilkreis-Durchmesser = </tspan><tspan
           id="tspan11237"
           sodipodi:role="line"
           x="238.49399"
           y="247.88507"> 32 Zähne * Modul 1.0 = 32mm)</tspan><tspan
           sodipodi:role="line"
           x="238.49399"
           y="260.38507"
           id="tspan11239" /></text>
      <path
         style="fill:none;stroke:#0000ff;stroke-width:0.35433072;stroke-miterlimit:4;stroke-dasharray:none;stroke-opacity:1;marker-start:url(#Arrow1Lstart)"
         d="m 125.0112,149.60283 c 0,0 -34.616205,-40.80705 -44.352699,-57.812564"
         id="path11248"
         inkscape:connector-curvature="0"
         sodipodi:nodetypes="cc" />
      <path
         style="fill:none;stroke:#0000ff;stroke-width:0.35433072;stroke-miterlimit:4;stroke-dasharray:none;stroke-opacity:1;marker-end:url(#Arrow1Lend)"
         d="M 80.658501,91.790266 C 99.222397,119.04347 122.69768,142.73906 145.52485,140.58803"
         id="path11434"
         inkscape:connector-curvature="0"
         sodipodi:nodetypes="cc" />
      <path
         style="fill:none;stroke:#0000ff;stroke-width:0.35433072;stroke-miterlimit:4;stroke-dasharray:none;stroke-opacity:1;marker-start:url(#Arrow1Lstart);marker-end:url(#Arrow1Lend)"
         d="m 184.56805,143.11342 c 17.39011,20.70132 51.65508,-10.0923 51.65508,-10.0923 0,0 -23.40877,37.67088 -47.33307,40.20026"
         id="path12540"
         inkscape:connector-curvature="0"
         sodipodi:nodetypes="ccc" />
      <path
         sodipodi:nodetypes="cc"
         inkscape:connector-curvature="0"
         id="path13646"
         d="m 236.96257,206.59309 c -30.44115,7.75083 -73.96626,17.25152 -92.45707,-3.69606"
         style="fill:none;stroke:#0000ff;stroke-width:0.35433072;stroke-miterlimit:4;stroke-dasharray:none;stroke-opacity:1;marker-end:url(#Arrow1Lend)" />
      <path
         sodipodi:nodetypes="cc"
         inkscape:connector-curvature="0"
         id="path13648"
         d="m 238.22269,237.09953 c -13.61898,5.21931 -62.4794,11.2295 -81.76195,1.43166"
         style="fill:none;stroke:#0000ff;stroke-width:0.35433072;stroke-miterlimit:4;stroke-dasharray:none;stroke-opacity:1;marker-end:url(#Arrow1Lend)" />
      <path
         style="fill:none;stroke:#0000ff;stroke-width:0.35433072;stroke-miterlimit:4;stroke-dasharray:none;stroke-opacity:1;marker-end:url(#Arrow1Lend)"
         d="m 237.93751,186.5295 c -41.015,19.50121 -74.88759,17.38366 -90.33054,-0.43523"
         id="path13650"
         inkscape:connector-curvature="0"
         sodipodi:nodetypes="cc" />
      <text
         xml:space="preserve"
         style="font-style:normal;font-variant:normal;font-weight:normal;font-stretch:normal;font-size:10px;line-height:125%;font-family:'Liberation Serif';-inkscape-font-specification:'Liberation Serif';letter-spacing:0px;word-spacing:0px;fill:#000000;fill-opacity:1;stroke:none"
         x="238.2059"
         y="79.600525"
         id="text13652"
         sodipodi:linespacing="125%"><tspan
           id="tspan13658"
           sodipodi:role="line"
           x="238.2059"
           y="79.600525">Einheiten: mm</tspan><tspan
           sodipodi:role="line"
           x="238.2059"
           y="92.100525"
           id="tspan13660" /></text>
      <circle
         style="fill:none;stroke:#0000ff;stroke-width:0.35433072;stroke-miterlimit:4;stroke-dasharray:none;stroke-opacity:1"
         id="path13670"
         cx="202.45149"
         cy="184.50827"
         r="6.7816563" />
      <path
         sodipodi:nodetypes="cc"
         inkscape:connector-curvature="0"
         id="path13672"
         d="m 234.60328,164.7502 c 0,0 -7.20147,4.38291 -26.88617,15.33306"
         style="fill:none;stroke:#0000ff;stroke-width:0.35433072;stroke-miterlimit:4;stroke-dasharray:none;stroke-opacity:1;marker-end:url(#Arrow1Lend)" />
      <g
         id="g4860"
         inkscape:transform-center-y="3.5527137e-15"
         inkscape:label="Gear32"
         transform="translate(398.23948,66.715956)"
         info="N:32; Pitch:11.1316275127; Pressure Angle: 20.0" />
    </g>
  </g>
</svg>
