<?xml version="1.0" encoding="UTF-8" standalone="no"?>
<!-- Created with Inkscape (http://www.inkscape.org/) -->

<svg
   xmlns:dc="http://purl.org/dc/elements/1.1/"
   xmlns:cc="http://creativecommons.org/ns#"
   xmlns:rdf="http://www.w3.org/1999/02/22-rdf-syntax-ns#"
   xmlns:svg="http://www.w3.org/2000/svg"
   xmlns="http://www.w3.org/2000/svg"
   xmlns:sodipodi="http://sodipodi.sourceforge.net/DTD/sodipodi-0.dtd"
   xmlns:inkscape="http://www.inkscape.org/namespaces/inkscape"
   width="744.09448"
   height="1052.3622"
   id="svg2"
   version="1.1"
   inkscape:version="0.48.4 r9939"
   sodipodi:docname="spur_gear_dimensions.svg">
  <sodipodi:namedview
     id="base"
     pagecolor="#ffffff"
     bordercolor="#666666"
     borderopacity="1.0"
     inkscape:pageopacity="0.0"
     inkscape:pageshadow="2"
     inkscape:zoom="3.1751515"
     inkscape:cx="220.61016"
     inkscape:cy="1028.1639"
     inkscape:document-units="mm"
     inkscape:current-layer="layer1"
     showgrid="false"
     units="mm"
     inkscape:window-width="1920"
     inkscape:window-height="1055"
     inkscape:window-x="0"
     inkscape:window-y="0"
     inkscape:window-maximized="1"
     inkscape:snap-object-midpoints="false"
     inkscape:snap-grids="true"
     inkscape:snap-center="true"
     inkscape:snap-bbox="false"
     showguides="true"
     inkscape:guide-bbox="true"
     inkscape:object-nodes="false"
     inkscape:snap-nodes="true"
     inkscape:snap-to-guides="false">
    <inkscape:grid
       spacingy="1mm"
       spacingx="1mm"
       dotted="true"
       units="mm"
       snapvisiblegridlinesonly="true"
       enabled="true"
       visible="true"
       empspacing="5"
       id="grid2987"
       type="xygrid" />
  </sodipodi:namedview>
  <defs
     id="defs4">
    <marker
       style="overflow:visible;"
       id="Arrow1Lend"
       refX="0.0"
       refY="0.0"
       orient="auto"
       inkscape:stockid="Arrow1Lend">
      <path
         transform="scale(0.8) rotate(180) translate(12.5,0)"
         style="fill-rule:evenodd;stroke:#000000;stroke-width:1.0pt;"
         d="M 0.0,0.0 L 5.0,-5.0 L -12.5,0.0 L 5.0,5.0 L 0.0,0.0 z "
         id="path4215" />
    </marker>
    <marker
       style="overflow:visible"
       id="Arrow1Lstart"
       refX="0.0"
       refY="0.0"
       orient="auto"
       inkscape:stockid="Arrow1Lstart">
      <path
         transform="scale(0.8) translate(12.5,0)"
         style="fill-rule:evenodd;stroke:#000000;stroke-width:1.0pt"
         d="M 0.0,0.0 L 5.0,-5.0 L -12.5,0.0 L 5.0,5.0 L 0.0,0.0 z "
         id="path4212" />
    </marker>
  </defs>
  <metadata
     id="metadata7">
    <rdf:RDF>
      <cc:Work
         rdf:about="">
        <dc:format>image/svg+xml</dc:format>
        <dc:type
           rdf:resource="http://purl.org/dc/dcmitype/StillImage" />
        <dc:title />
      </cc:Work>
    </rdf:RDF>
  </metadata>
  <g
     transform="translate(0,-2.5390623e-6)"
     id="layer1"
     inkscape:groupmode="layer"
     inkscape:label="Layer 1">
    <text
       xml:space="preserve"
       style="font-size:10px;font-style:normal;font-variant:normal;font-weight:normal;font-stretch:normal;line-height:125%;letter-spacing:0px;word-spacing:0px;fill:#000000;fill-opacity:1;stroke:none;font-family:Liberation Serif;-inkscape-font-specification:Liberation Serif"
       x="311.93765"
       y="298.60248"
       id="text4132"
       sodipodi:linespacing="125%"
       transform="translate(0,2.5390623e-6)"><tspan
         sodipodi:role="line"
         id="tspan4134"
         x="311.93765"
         y="298.60248" /></text>
    <g
       id="g13674">
      <g
         id="g4157"
         inkscape:label="Gear32"
         transform="translate(106.29921,113.38581)"
         info="N:32; Pitch:11.1316275127; Pressure Angle: 25.0"
         style="fill:none"
         inkscape:transform-center-x="1.6162694"
         inkscape:transform-center-y="-1.9965681">
        <path
           id="path4159"
           style="fill:#e0e0e0;fill-opacity:0.70720712;stroke:#000000"
           d="m 53.0075,-3.8836 1.4446,0.3449 1.4483,0.4755 1.4479,0.5902 1.4437,0.6958 1.4362,0.7956 0.008,0.9816 -0.008,0.9816 -1.4362,0.7956 -1.4437,0.6958 -1.4479,0.5902 -1.4483,0.4755 -1.4446,0.3449 -0.1138,1.326 -0.147,1.3227 1.3495,0.62 1.3277,0.749 1.3049,0.8613 1.2803,0.9641 1.2533,1.0605 -0.1836,0.9643 -0.1993,0.9611 -1.5638,0.5002 -1.5518,0.4008 -1.5352,0.2964 -1.5133,0.1838 -1.484,0.0564 -0.3704,1.2783 -0.4022,1.2686 1.2026,0.8714 1.1561,0.9936 1.1118,1.0994 1.0676,1.1954 1.0223,1.2846 -0.3682,0.9099 -0.383,0.9038 -1.6313,0.1854 -1.6002,0.0904 -1.5635,-0.0088 -1.5201,-0.1149 -1.4665,-0.2342 -0.6126,1.1815 -0.642,1.1657 1.0095,1.0893 0.94,1.2 0.876,1.2952 0.8138,1.3806 0.7522,1.4595 -0.5387,0.8206 -0.552,0.8116 -1.6361,-0.1363 -1.5871,-0.2236 -1.5318,-0.3136 -1.4684,-0.4093 -1.3927,-0.5158 -0.8313,1.0393 -0.8571,1.0181 0.7776,1.2653 0.6879,1.3603 0.6064,1.4412 0.5289,1.5129 0.4529,1.5781 -0.6884,0.6997 -0.6997,0.6884 -1.5781,-0.4529 -1.5129,-0.5289 -1.4412,-0.6064 -1.3603,-0.6879 -1.2653,-0.7776 -1.0181,0.8571 -1.0393,0.8313 0.5158,1.3927 0.4093,1.4684 0.3136,1.5318 0.2236,1.5871 0.1363,1.6361 -0.8116,0.552 -0.8206,0.5387 -1.4595,-0.7522 -1.3806,-0.8138 -1.2952,-0.876 -1.2,-0.94 -1.0893,-1.0095 -1.1657,0.642 -1.1815,0.6126 0.2342,1.4665 0.1149,1.5201 0.0088,1.5635 -0.0904,1.6002 -0.1854,1.6313 -0.9038,0.383 -0.9099,0.3682 -1.2846,-1.0223 -1.1954,-1.0676 -1.0994,-1.1118 -0.9936,-1.1561 -0.8714,-1.2026 -1.2686,0.4022 -1.2783,0.3704 -0.0564,1.484 -0.1838,1.5133 -0.2964,1.5352 -0.4008,1.5518 -0.5002,1.5638 -0.9611,0.1993 -0.9643,0.1836 L 9.7267,58.0091 8.7626,56.7288 7.9013,55.4239 7.1523,54.0962 6.5323,52.7467 5.2096,52.8937 3.8836,53.0075 3.5387,54.4521 3.0632,55.9004 2.473,57.3483 1.7772,58.792 0.9816,60.2282 0,60.2362 -0.9816,60.2282 -1.7772,58.792 -2.473,57.3483 l -0.5902,-1.4479 -0.4755,-1.4483 -0.3449,-1.4446 -1.326,-0.1138 -1.3227,-0.147 -0.62,1.3495 -0.749,1.3277 -0.8613,1.3049 -0.9641,1.2803 -1.0605,1.2533 -0.9643,-0.1836 -0.9611,-0.1993 -0.5002,-1.5638 -0.4008,-1.5518 -0.2964,-1.5352 -0.1838,-1.5133 -0.0564,-1.484 -1.2783,-0.3704 -1.2686,-0.4022 -0.8714,1.2026 -0.9936,1.1561 -1.0994,1.1118 -1.1954,1.0676 -1.2846,1.0223 -0.9099,-0.3682 -0.9038,-0.383 -0.1854,-1.6313 -0.0904,-1.6002 0.0088,-1.5635 0.1149,-1.5201 0.2342,-1.4665 -1.1815,-0.6126 -1.1657,-0.642 -1.0893,1.0095 -1.2,0.94 -1.2952,0.876 -1.3806,0.8138 -1.4595,0.7522 -0.8206,-0.5387 -0.8116,-0.552 0.1363,-1.6361 0.2236,-1.5871 0.3136,-1.5318 0.4093,-1.4684 0.5158,-1.3927 -1.0393,-0.8313 -1.0181,-0.8571 -1.2653,0.7776 -1.3603,0.6879 -1.4412,0.6064 -1.5129,0.5289 -1.5781,0.4529 -0.6997,-0.6884 -0.6884,-0.6997 0.4529,-1.5781 0.5289,-1.5129 0.6064,-1.4412 0.6879,-1.3603 0.7776,-1.2653 -0.8571,-1.0181 -0.8313,-1.0393 -1.3927,0.5158 -1.4684,0.4093 -1.5318,0.3136 -1.5871,0.2236 -1.6361,0.1363 -0.552,-0.8116 -0.5387,-0.8206 0.7522,-1.4595 0.8138,-1.3806 0.876,-1.2952 0.94,-1.2 1.0095,-1.0893 -0.642,-1.1657 -0.6126,-1.1815 -1.4665,0.2342 -1.5201,0.1149 -1.5635,0.0088 -1.6002,-0.0904 -1.6313,-0.1854 -0.383,-0.9038 -0.3682,-0.9099 1.0223,-1.2846 1.0676,-1.1954 1.1118,-1.0994 1.1561,-0.9936 1.2026,-0.8714 -0.4022,-1.2686 -0.3704,-1.2783 -1.484,-0.0564 -1.5133,-0.1838 -1.5352,-0.2964 -1.5518,-0.4008 -1.5638,-0.5002 -0.1993,-0.9611 -0.1836,-0.9643 1.2533,-1.0605 1.2803,-0.9641 1.3049,-0.8613 1.3277,-0.749 1.3495,-0.62 -0.147,-1.3227 -0.1138,-1.326 L -54.4521,3.5387 -55.9004,3.0632 -57.3483,2.473 -58.792,1.7772 -60.2282,0.9816 -60.2362,0 l 0.008,-0.9816 1.4362,-0.7956 1.4437,-0.6958 1.4479,-0.5902 1.4483,-0.4755 1.4446,-0.3449 0.1138,-1.326 0.147,-1.3227 -1.3495,-0.62 -1.3277,-0.749 -1.3049,-0.8613 -1.2803,-0.9641 -1.2533,-1.0605 0.1836,-0.9643 0.1993,-0.9611 1.5638,-0.5002 1.5518,-0.4008 1.5352,-0.2964 1.5133,-0.1838 1.484,-0.0564 0.3704,-1.2783 0.4022,-1.2686 -1.2026,-0.8714 -1.1561,-0.9936 -1.1118,-1.0994 -1.0676,-1.1954 -1.0223,-1.2846 0.3682,-0.9099 0.383,-0.9038 1.6313,-0.1854 1.6002,-0.0904 1.5635,0.0088 1.5201,0.1149 1.4665,0.2342 0.6126,-1.1815 0.642,-1.1657 -1.0095,-1.0893 -0.94,-1.2 -0.876,-1.2952 -0.8138,-1.3806 -0.7522,-1.4595 0.5387,-0.8206 0.552,-0.8116 1.6361,0.1363 1.5871,0.2236 1.5318,0.3136 1.4684,0.4093 1.3927,0.5158 0.8313,-1.0393 0.8571,-1.0181 -0.7776,-1.2653 -0.6879,-1.3603 -0.6064,-1.4412 -0.5289,-1.5129 -0.4529,-1.5781 0.6884,-0.6997 0.6997,-0.6884 1.5781,0.4529 1.5129,0.5289 1.4412,0.6064 1.3603,0.6879 1.2653,0.7776 1.0181,-0.8571 1.0393,-0.8313 -0.5158,-1.3927 -0.4093,-1.4684 -0.3136,-1.5318 -0.2236,-1.5871 -0.1363,-1.6361 0.8116,-0.552 0.8206,-0.5387 1.4595,0.7522 1.3806,0.8138 1.2952,0.876 1.2,0.94 1.0893,1.0095 1.1657,-0.642 1.1815,-0.6126 -0.2342,-1.4665 -0.1149,-1.5201 -0.0088,-1.5635 0.0904,-1.6002 0.1854,-1.6313 0.9038,-0.383 0.9099,-0.3682 1.2846,1.0223 1.1954,1.0676 1.0994,1.1118 0.9936,1.1561 0.8714,1.2026 1.2686,-0.4022 1.2783,-0.3704 0.0564,-1.484 0.1838,-1.5133 0.2964,-1.5352 0.4008,-1.5518 0.5002,-1.5638 0.9611,-0.1993 0.9643,-0.1836 1.0605,1.2533 0.9641,1.2803 0.8613,1.3049 0.749,1.3277 0.62,1.3495 1.3227,-0.147 1.326,-0.1138 0.3449,-1.4446 0.4755,-1.4483 0.5902,-1.4479 0.6958,-1.4437 0.7956,-1.4362 0.9816,-0.008 0.9816,0.008 0.7956,1.4362 0.6958,1.4437 0.5902,1.4479 0.4755,1.4483 0.3449,1.4446 1.326,0.1138 1.3227,0.147 0.62,-1.3495 0.749,-1.3277 0.8613,-1.3049 0.9641,-1.2803 1.0605,-1.2533 0.9643,0.1836 0.9611,0.1993 0.5002,1.5638 0.4008,1.5518 0.2964,1.5352 0.1838,1.5133 0.0564,1.484 1.2783,0.3704 1.2686,0.4022 0.8714,-1.2026 0.9936,-1.1561 1.0994,-1.1118 1.1954,-1.0676 1.2846,-1.0223 0.9099,0.3682 0.9038,0.383 0.1854,1.6313 0.0904,1.6002 -0.0088,1.5635 -0.1149,1.5201 -0.2342,1.4665 1.1815,0.6126 1.1657,0.642 1.0893,-1.0095 1.2,-0.94 1.2952,-0.876 1.3806,-0.8138 1.4595,-0.7522 0.8206,0.5387 0.8116,0.552 -0.1363,1.6361 -0.2236,1.5871 -0.3136,1.5318 -0.4093,1.4684 -0.5158,1.3927 1.0393,0.8313 1.0181,0.8571 1.2653,-0.7776 1.3603,-0.6879 1.4412,-0.6064 1.5129,-0.5289 1.5781,-0.4529 0.6997,0.6884 0.6884,0.6997 -0.4529,1.5781 -0.5289,1.5129 -0.6064,1.4412 -0.6879,1.3603 -0.7776,1.2653 0.8571,1.0181 0.8313,1.0393 1.3927,-0.5158 1.4684,-0.4093 1.5318,-0.3136 1.5871,-0.2236 1.6361,-0.1363 0.552,0.8116 0.5387,0.8206 -0.7522,1.4595 -0.8138,1.3806 -0.876,1.2952 -0.94,1.2 -1.0095,1.0893 0.642,1.1657 0.6126,1.1815 1.4665,-0.2342 1.5201,-0.1149 1.5635,-0.0088 1.6002,0.0904 1.6313,0.1854 0.383,0.9038 0.3682,0.9099 -1.0223,1.2846 -1.0676,1.1954 -1.1118,1.0994 -1.1561,0.9936 -1.2026,0.8714 0.4022,1.2686 0.3704,1.2783 1.484,0.0564 1.5133,0.1838 1.5352,0.2964 1.5518,0.4008 1.5638,0.5002 0.1993,0.9611 0.1836,0.9643 -1.2533,1.0605 -1.2803,0.9641 -1.3049,0.8613 -1.3277,0.749 -1.3495,0.62 0.147,1.3227 z M 20.793357,4.429134 A 21.259843,21.259843 0 0 1 4.429134,20.793357 l 0,23.275968 A 44.291339,44.291339 0 0 0 44.069325,4.429134 z M -4.429134,20.793357 A 21.259843,21.259843 0 0 1 -20.793357,4.429134 l -23.275968,0 A 44.291339,44.291339 0 0 0 -4.429134,44.069325 z M -20.793357,-4.429134 a 21.259843,21.259843 0 0 1 16.364223,-16.364223 l 0,-23.275968 A 44.291339,44.291339 0 0 0 -44.069325,-4.429134 z M 4.429134,-20.793357 a 21.259843,21.259843 0 0 1 16.364223,16.364223 l 23.275968,0 A 44.291339,44.291339 0 0 0 4.429134,-44.069325 z M 0,10.629921 a 10.629921,10.629921 0 0 0 0,-21.259842 10.629921,10.629921 0 0 0 0,21.259842"
           inkscape:connector-curvature="0" />
        <path
           id="path4161"
           inkscape:label="Center cross"
           style="fill:none;stroke:#000000;stroke-width:0.1"
           d="m -3.7105425,0 7.421085,0 M 0,-3.7105425 0,3.7105425"
           inkscape:connector-curvature="0" />
        <circle
           d="M 56.692913,0 C 56.692913,31.310631 31.310631,56.692913 0,56.692913 -31.310631,56.692913 -56.692913,31.310631 -56.692913,0 c 0,-31.310631 25.382282,-56.692913 56.692913,-56.692913 31.310631,0 56.692913,25.382282 56.692913,56.692913 z"
           id="circle4163"
           inkscape:label="Pitch circle"
           style="fill:none;stroke:#000000;stroke-width:0.1"
           r="56.692913"
           cy="0"
           cx="0"
           sodipodi:cx="0"
           sodipodi:cy="0"
           sodipodi:rx="56.692913"
           sodipodi:ry="56.692913" />
      </g>
      <g
         id="g9350"
         inkscape:transform-center-y="21.440942"
         transform="matrix(0.63695873,0.77089791,-0.77089791,0.63695873,215.05394,-289.02436)"
         inkscape:transform-center-x="25.949521">
        <g
           inkscape:transform-center-y="7.7520842"
           id="g9264">
          <path
             style="fill:none;stroke:#000000;stroke-width:0.17716534;stroke-miterlimit:4;stroke-opacity:1;stroke-dasharray:none"
             d="m 230.31496,340.15746 0,14.17323"
             id="path4202"
             inkscape:connector-curvature="0"
             transform="translate(0,2.5390623e-6)" />
          <path
             style="fill:none;stroke:#000000;stroke-width:0.17716534;stroke-miterlimit:4;stroke-opacity:1;stroke-dasharray:none"
             d="m 251.5748,340.15746 0,14.17323"
             id="path4204"
             inkscape:connector-curvature="0"
             transform="translate(0,2.5390623e-6)" />
          <path
             style="fill:none;stroke:#000000;stroke-width:0.03543307;stroke-miterlimit:4;stroke-opacity:1;stroke-dasharray:none;marker-start:none;marker-end:none"
             d="m 230.31496,354.33069 21.25984,0"
             id="path4206"
             inkscape:connector-curvature="0"
             transform="translate(0,2.5390623e-6)" />
          <path
             style="fill:none;stroke:#000000;stroke-width:0.17716534;stroke-miterlimit:4;stroke-opacity:1;stroke-dasharray:none;marker-start:none;marker-end:url(#Arrow1Lstart)"
             d="m 233.85827,354.33069 -3.54331,0 0,0"
             id="path5206"
             inkscape:connector-curvature="0"
             transform="translate(0,2.5390623e-6)" />
          <path
             style="fill:none;stroke:#000000;stroke-width:0.17716534;stroke-miterlimit:4;stroke-opacity:1;stroke-dasharray:none;marker-end:url(#Arrow1Lend)"
             d="m 248.03149,354.33069 3.54331,0"
             id="path9074"
             inkscape:connector-curvature="0" />
          <text
             xml:space="preserve"
             style="font-size:6px;font-style:normal;font-variant:normal;font-weight:normal;font-stretch:normal;line-height:125%;letter-spacing:0px;word-spacing:0px;fill:#000000;fill-opacity:1;stroke:none;font-family:Liberation Serif;-inkscape-font-specification:Liberation Serif"
             x="234.86261"
             y="355.69162"
             id="text9260"
             sodipodi:linespacing="125%"><tspan
               sodipodi:role="line"
               id="tspan9262"
               x="234.86261"
               y="355.69162">6mm</tspan></text>
        </g>
        <g
           style="stroke-width:0.08858272;stroke-miterlimit:4;stroke-dasharray:none"
           inkscape:transform-center-x="-1.0040576e-05"
           transform="matrix(1.9999989,0,0,1.9999989,-240.9446,-340.15708)"
           id="g9291"
           inkscape:transform-center-y="15.504186">
          <path
             sodipodi:nodetypes="cc"
             transform="translate(0,2.5390623e-6)"
             inkscape:connector-curvature="0"
             id="path9293"
             d="m 230.31495,340.15745 1e-5,14.17324"
             style="fill:none;stroke:#000000;stroke-width:0.08858272;stroke-miterlimit:4;stroke-opacity:1;stroke-dasharray:none" />
          <path
             transform="translate(0,2.5390623e-6)"
             inkscape:connector-curvature="0"
             id="path9295"
             d="m 251.5748,340.15746 0,14.17323"
             style="fill:none;stroke:#000000;stroke-width:0.08858272;stroke-miterlimit:4;stroke-opacity:1;stroke-dasharray:none" />
          <g
             transform="translate(5.7086477e-7,-1.7716509)"
             id="g9335">
            <path
               style="fill:none;stroke:#000000;stroke-width:0.08858272;stroke-miterlimit:4;stroke-opacity:1;stroke-dasharray:none;marker-start:none;marker-end:none"
               d="m 230.31496,354.33069 21.25984,0"
               id="path9297"
               inkscape:connector-curvature="0"
               transform="translate(0,2.5390623e-6)" />
            <path
               style="fill:none;stroke:#000000;stroke-width:0.08858272;stroke-miterlimit:4;stroke-opacity:1;stroke-dasharray:none;marker-start:none;marker-end:url(#Arrow1Lstart)"
               d="m 233.85827,354.33069 -3.54331,0 0,0"
               id="path9299"
               inkscape:connector-curvature="0"
               transform="translate(0,2.5390623e-6)" />
            <path
               style="fill:none;stroke:#000000;stroke-width:0.08858272;stroke-miterlimit:4;stroke-opacity:1;stroke-dasharray:none;marker-end:url(#Arrow1Lend)"
               d="m 248.03149,354.33069 3.54331,0"
               id="path9301"
               inkscape:connector-curvature="0" />
          </g>
          <text
             sodipodi:linespacing="125%"
             id="text9303"
             y="355.26227"
             x="236.96268"
             style="font-size:6px;font-style:normal;font-variant:normal;font-weight:normal;font-stretch:normal;line-height:125%;letter-spacing:0px;word-spacing:0px;fill:#000000;fill-opacity:1;stroke:none;font-family:Liberation Serif;-inkscape-font-specification:Liberation Serif"
             xml:space="preserve"><tspan
               style="font-size:3.00000167px"
               y="355.26227"
               x="236.96268"
               id="tspan9305"
               sodipodi:role="line">12mm</tspan></text>
        </g>
        <g
           inkscape:transform-center-y="34.233729"
           id="g9340">
          <path
             style="fill:none;stroke:#000000;stroke-width:0.17716537;stroke-miterlimit:4;stroke-opacity:1;stroke-dasharray:none"
             d="m 184.25197,340.15746 0,67.32284"
             id="path9309"
             inkscape:connector-curvature="0"
             sodipodi:nodetypes="cc" />
          <path
             style="fill:none;stroke:#000000;stroke-width:0.17716537;stroke-miterlimit:4;stroke-opacity:1;stroke-dasharray:none"
             d="m 297.6378,340.15746 0,67.32284"
             id="path9311"
             inkscape:connector-curvature="0"
             sodipodi:nodetypes="cc" />
          <g
             id="g9330"
             transform="translate(-3.4724409e-5,-11.811032)">
            <path
               inkscape:connector-curvature="0"
               id="path9313"
               d="m 184.25206,415.74802 113.38577,0"
               style="fill:none;stroke:#000000;stroke-width:0.17716537;stroke-miterlimit:4;stroke-opacity:1;stroke-dasharray:none;marker-start:none;marker-end:none" />
            <path
               inkscape:connector-curvature="0"
               id="path9315"
               d="m 203.14971,415.74802 -18.89765,0 0,0"
               style="fill:none;stroke:#000000;stroke-width:0.17716537;stroke-miterlimit:4;stroke-opacity:1;stroke-dasharray:none;marker-start:none;marker-end:url(#Arrow1Lstart)" />
            <path
               inkscape:connector-curvature="0"
               id="path9317"
               d="m 278.74018,415.74802 18.89765,0"
               style="fill:none;stroke:#000000;stroke-width:0.17716537;stroke-miterlimit:4;stroke-opacity:1;stroke-dasharray:none;marker-end:url(#Arrow1Lend)" />
          </g>
          <text
             xml:space="preserve"
             style="font-size:31.99998665px;font-style:normal;font-variant:normal;font-weight:normal;font-stretch:normal;line-height:125%;letter-spacing:0px;word-spacing:0px;fill:#000000;fill-opacity:1;stroke:none;font-family:Liberation Serif;-inkscape-font-specification:Liberation Serif"
             x="235.46693"
             y="408.65491"
             id="text9319"
             sodipodi:linespacing="125%"><tspan
               sodipodi:role="line"
               id="tspan9321"
               x="235.46693"
               y="408.65491"
               style="font-size:6px">32mm</tspan></text>
        </g>
      </g>
      <g
         id="g10130"
         inkscape:transform-center-x="-32.432529"
         transform="translate(-134.64567,-226.77165)">
        <text
           sodipodi:linespacing="125%"
           id="text9380"
           y="341.98157"
           x="264.87692"
           style="font-size:10px;font-style:normal;font-variant:normal;font-weight:normal;font-stretch:normal;line-height:125%;letter-spacing:0px;word-spacing:0px;fill:#000000;fill-opacity:1;stroke:none;font-family:Liberation Serif;-inkscape-font-specification:Liberation Serif"
           xml:space="preserve"><tspan
             style="font-size:6px"
             y="341.98157"
             x="264.87692"
             id="tspan9382"
             sodipodi:role="line">2.5mm</tspan></text>
        <path
           sodipodi:nodetypes="cc"
           transform="translate(0,2.5390623e-6)"
           inkscape:connector-curvature="0"
           id="path9384"
           d="m 272.83465,322.44092 0,13.2874"
           style="fill:none;stroke:#000000;stroke-width:0.17716534;stroke-miterlimit:4;stroke-opacity:1;stroke-dasharray:none;marker-end:url(#Arrow1Lend)" />
        <path
           sodipodi:nodetypes="cc"
           transform="translate(0,2.5390623e-6)"
           inkscape:connector-curvature="0"
           id="path9386"
           d="m 272.84188,344.58659 -0.007,13.2874"
           style="fill:none;stroke:#000000;stroke-width:0.17716534;stroke-miterlimit:4;stroke-opacity:1;stroke-dasharray:none;marker-start:url(#Arrow1Lstart);marker-end:none" />
      </g>
      <g
         id="g10146"
         transform="matrix(0.77131073,0.63645877,-0.63645877,0.77131073,143.36369,-360.20791)"
         inkscape:transform-center-y="-37.578545"
         inkscape:transform-center-x="-31.008663">
        <text
           xml:space="preserve"
           style="font-size:10px;font-style:normal;font-variant:normal;font-weight:normal;font-stretch:normal;line-height:125%;letter-spacing:0px;word-spacing:0px;fill:#000000;fill-opacity:1;stroke:none;font-family:Liberation Serif;-inkscape-font-specification:Liberation Serif"
           x="264.87692"
           y="341.98157"
           id="text10148"
           sodipodi:linespacing="125%"><tspan
             sodipodi:role="line"
             id="tspan10150"
             x="264.87692"
             y="341.98157"
             style="font-size:6px">2.5mm</tspan></text>
        <path
           style="fill:none;stroke:#000000;stroke-width:0.17716534;stroke-miterlimit:4;stroke-opacity:1;stroke-dasharray:none;marker-end:url(#Arrow1Lend)"
           d="m 272.83465,322.44092 0,13.2874"
           id="path10152"
           inkscape:connector-curvature="0"
           transform="translate(0,2.5390623e-6)"
           sodipodi:nodetypes="cc" />
        <path
           style="fill:none;stroke:#000000;stroke-width:0.17716534;stroke-miterlimit:4;stroke-opacity:1;stroke-dasharray:none;marker-start:url(#Arrow1Lstart);marker-end:none"
           d="m 272.84188,344.58659 -0.007,13.2874"
           id="path10154"
           inkscape:connector-curvature="0"
           transform="translate(0,2.5390623e-6)"
           sodipodi:nodetypes="cc" />
      </g>
      <text
         xml:space="preserve"
         style="font-size:10px;font-style:normal;font-variant:normal;font-weight:normal;font-stretch:normal;line-height:125%;letter-spacing:0px;word-spacing:0px;fill:#000000;fill-opacity:1;stroke:none;font-family:Liberation Serif;-inkscape-font-specification:Liberation Serif"
         x="175.40222"
         y="146.3167"
         id="text10629"
         sodipodi:linespacing="125%"><tspan
           id="tspan10637"
           sodipodi:role="line"
           x="175.40222"
           y="146.3167">Mount hole diameter: 6.0 [mm]</tspan><tspan
           sodipodi:role="line"
           x="175.40222"
           y="158.8167"
           id="tspan10653" /></text>
      <text
         sodipodi:linespacing="125%"
         id="text10655"
         y="106.39201"
         x="210.70055"
         style="font-size:10px;font-style:normal;font-variant:normal;font-weight:normal;font-stretch:normal;line-height:125%;letter-spacing:0px;word-spacing:0px;fill:#000000;fill-opacity:1;stroke:none;font-family:Liberation Serif;-inkscape-font-specification:Liberation Serif"
         xml:space="preserve"><tspan
           y="106.39201"
           x="210.70055"
           id="tspan10657"
           sodipodi:role="line">Number of teeth: 32</tspan><tspan
           y="118.89201"
           x="210.70055"
           sodipodi:role="line"
           id="tspan10677">Metric Module: 1.0</tspan><tspan
           id="tspan10679"
           y="131.39201"
           x="210.70055"
           sodipodi:role="line" /></text>
      <text
         xml:space="preserve"
         style="font-size:10px;font-style:normal;font-variant:normal;font-weight:normal;font-stretch:normal;line-height:125%;letter-spacing:0px;word-spacing:0px;fill:#000000;fill-opacity:1;stroke:none;font-family:Liberation Serif;-inkscape-font-specification:Liberation Serif"
         x="17.220877"
         y="18.719843"
         id="text10222"
         sodipodi:linespacing="125%"><tspan
           sodipodi:role="line"
           id="tspan10224"
           x="17.220877"
           y="18.719843"
           style="font-size:16px">Dimensions of a spur gear</tspan></text>
      <path
         style="fill:none;stroke:#000000;stroke-width:0.17716534;stroke-miterlimit:4;stroke-opacity:1;stroke-dasharray:none;marker-end:url(#Arrow1Lend)"
         d="m 160.54379,179.78097 c 0,0 -23.02239,4.93049 -38.57169,-11.97625"
         id="path10285"
         inkscape:connector-curvature="0"
         transform="translate(0,2.5390623e-6)"
         sodipodi:nodetypes="cc" />
      <path
         sodipodi:nodetypes="cc"
         inkscape:connector-curvature="0"
         id="path10471"
         d="M 146.82018,53.766102 C 138.18945,58.446078 120.1613,76.035228 107.34614,110.6183"
         style="fill:none;stroke:#000000;stroke-width:0.17716534;stroke-miterlimit:4;stroke-opacity:1;stroke-dasharray:none;marker-end:url(#Arrow1Lend)" />
      <text
         sodipodi:linespacing="125%"
         id="text11033"
         y="35.5709"
         x="16.645203"
         style="font-size:10px;font-style:normal;font-variant:normal;font-weight:normal;font-stretch:normal;line-height:125%;letter-spacing:0px;word-spacing:0px;fill:#000000;fill-opacity:1;stroke:none;font-family:Liberation Serif;-inkscape-font-specification:Liberation Serif"
         xml:space="preserve"><tspan
           id="tspan11053"
           y="35.5709"
           x="16.645203"
           sodipodi:role="line">Number of spokes: 4</tspan><tspan
           id="tspan3072"
           y="48.0709"
           x="16.645203"
           sodipodi:role="line">(equals number of holes)</tspan></text>
      <text
         xml:space="preserve"
         style="font-size:10px;font-style:normal;font-variant:normal;font-weight:normal;font-stretch:normal;line-height:125%;letter-spacing:0px;word-spacing:0px;fill:#000000;fill-opacity:1;stroke:none;font-family:Liberation Serif;-inkscape-font-specification:Liberation Serif"
         x="167.41759"
         y="148.58549"
         id="text11094"
         sodipodi:linespacing="125%"><tspan
           id="tspan11096"
           sodipodi:role="line"
           x="167.41759"
           y="148.58549" /><tspan
           id="tspan11098"
           sodipodi:role="line"
           x="167.41759"
           y="161.08549">Mount support diameter: 12.0 [mm]</tspan><tspan
           id="tspan11110"
           sodipodi:role="line"
           x="167.41759"
           y="173.58551" /><tspan
           sodipodi:role="line"
           x="167.41759"
           y="186.08551"
           id="tspan11112" /></text>
      <text
         xml:space="preserve"
         style="font-size:10px;font-style:normal;font-variant:normal;font-weight:normal;font-stretch:normal;line-height:125%;letter-spacing:0px;word-spacing:0px;fill:#000000;fill-opacity:1;stroke:none;font-family:Liberation Serif;-inkscape-font-specification:Liberation Serif"
         x="167.75056"
         y="70.219116"
         id="text11139"
         sodipodi:linespacing="125%"><tspan
           id="tspan11143"
           sodipodi:role="line"
           x="167.75056"
           y="70.219116">Spokes width: 2.5 [mm]</tspan><tspan
           id="tspan3074"
           sodipodi:role="line"
           x="167.75056"
           y="82.719116">(equals rim width)</tspan><tspan
           sodipodi:role="line"
           x="167.75056"
           y="95.219116"
           id="tspan11153" /></text>
      <text
         sodipodi:linespacing="125%"
         id="text11199"
         y="53.766102"
         x="148.12801"
         style="font-size:10px;font-style:normal;font-variant:normal;font-weight:normal;font-stretch:normal;line-height:125%;letter-spacing:0px;word-spacing:0px;fill:#000000;fill-opacity:1;stroke:none;font-family:Liberation Serif;-inkscape-font-specification:Liberation Serif"
         xml:space="preserve"><tspan
           y="53.766102"
           x="148.12801"
           sodipodi:role="line"
           id="tspan11203">Draw center cross: yes</tspan><tspan
           y="66.266098"
           x="148.12801"
           sodipodi:role="line"
           id="tspan11209" /><tspan
           id="tspan11211"
           y="78.766098"
           x="148.12801"
           sodipodi:role="line" /></text>
      <text
         xml:space="preserve"
         style="font-size:10px;font-style:normal;font-variant:normal;font-weight:normal;font-stretch:normal;line-height:125%;letter-spacing:0px;word-spacing:0px;fill:#000000;fill-opacity:1;stroke:none;font-family:Liberation Serif;-inkscape-font-specification:Liberation Serif"
         x="162.50552"
         y="178.25519"
         id="text11229"
         sodipodi:linespacing="125%"><tspan
           id="tspan11233"
           sodipodi:role="line"
           x="162.50552"
           y="178.25519">Draw pitch circle: yes  </tspan><tspan
           id="tspan11235"
           sodipodi:role="line"
           x="162.50552"
           y="190.75519">(pitch circle diameter = </tspan><tspan
           id="tspan11237"
           sodipodi:role="line"
           x="162.50552"
           y="203.25519"> 32 teeth * module 1.0 = 32mm)</tspan><tspan
           sodipodi:role="line"
           x="162.50552"
           y="215.75519"
           id="tspan11239" /></text>
      <path
         style="fill:none;stroke:#000000;stroke-width:0.17716534;stroke-miterlimit:4;stroke-opacity:1;stroke-dasharray:none;marker-start:url(#Arrow1Lstart);marker-end:url(#Arrow1Lend)"
         d="M 66.429407,122.04222 C 69.46439,84.575365 56.692913,49.606277 56.692913,49.606277 c 0,0 15.024407,16.858154 17.905308,39.2983"
         id="path11248"
         inkscape:connector-curvature="0"
         transform="translate(0,2.5390623e-6)"
         sodipodi:nodetypes="ccc" />
      <path
         style="fill:none;stroke:#000000;stroke-width:0.17716534;stroke-miterlimit:4;stroke-opacity:1;stroke-dasharray:none;marker-start:url(#Arrow1Lstart);marker-end:url(#Arrow1Lend)"
         d="M 130.9025,123.09339 C 108.89654,92.375248 56.692913,49.606277 56.692913,49.606277 c 0,0 33.595308,21.623584 58.595247,23.423059"
         id="path11434"
         inkscape:connector-curvature="0"
         transform="translate(0,2.5390623e-6)"
         sodipodi:nodetypes="ccc" />
      <path
         style="fill:none;stroke:#000000;stroke-width:0.17716534;stroke-miterlimit:4;stroke-opacity:1;stroke-dasharray:none;marker-start:url(#Arrow1Lstart);marker-end:url(#Arrow1Lend)"
         d="m 144.56805,83.113413 c 17.39011,20.701327 34.28447,2.824313 34.28447,2.824313 0,0 -6.03816,24.754274 -29.96246,27.283654"
         id="path12540"
         inkscape:connector-curvature="0"
         transform="translate(0,2.5390623e-6)"
         sodipodi:nodetypes="ccc" />
      <path
         sodipodi:nodetypes="cc"
         transform="translate(0,2.5390623e-6)"
         inkscape:connector-curvature="0"
         id="path13646"
         d="m 165.33915,159.5097 c 0,0 -46.87668,-8.27339 -56.42441,-20.70696"
         style="fill:none;stroke:#000000;stroke-width:0.17716534;stroke-miterlimit:4;stroke-opacity:1;stroke-dasharray:none;marker-end:url(#Arrow1Lend)" />
      <path
         sodipodi:nodetypes="cc"
         transform="translate(0,2.5390623e-6)"
         inkscape:connector-curvature="0"
         id="path13648"
         d="m 158.58206,190.46154 c 0,0 -26.94036,3.92396 -42.12132,-11.93035"
         style="fill:none;stroke:#000000;stroke-width:0.17716534;stroke-miterlimit:4;stroke-opacity:1;stroke-dasharray:none;marker-end:url(#Arrow1Lend)" />
      <path
         style="fill:none;stroke:#000000;stroke-width:0.17716534;stroke-miterlimit:4;stroke-opacity:1;stroke-dasharray:none;marker-end:url(#Arrow1Lend)"
         d="m 173.44049,144.79091 c 0,0 -50.61855,-1.90365 -65.83352,-18.69664"
         id="path13650"
         inkscape:connector-curvature="0"
         transform="translate(0,2.5390623e-6)"
         sodipodi:nodetypes="cc" />
      <text
         xml:space="preserve"
         style="font-size:10px;font-style:normal;font-variant:normal;font-weight:normal;font-stretch:normal;line-height:125%;letter-spacing:0px;word-spacing:0px;fill:#000000;fill-opacity:1;stroke:none;font-family:Liberation Serif;-inkscape-font-specification:Liberation Serif"
         x="211.57243"
         y="34.025742"
         id="text13652"
         sodipodi:linespacing="125%"><tspan
           id="tspan13658"
           sodipodi:role="line"
           x="211.57243"
           y="34.025742">Units: mm</tspan><tspan
           sodipodi:role="line"
           x="211.57243"
           y="46.525742"
           id="tspan13660" /></text>
      <path
         sodipodi:type="arc"
         style="fill:none;stroke:#000000;stroke-width:0.17716534;stroke-miterlimit:4;stroke-opacity:1;stroke-dasharray:none"
         id="path13670"
         sodipodi:cx="159.83131"
         sodipodi:cy="125.7413"
         sodipodi:rx="6.7816563"
         sodipodi:ry="6.7816563"
         d="m 166.61297,125.7413 c 0,3.74541 -3.03625,6.78166 -6.78166,6.78166 -3.7454,0 -6.78165,-3.03625 -6.78165,-6.78166 0,-3.7454 3.03625,-6.78165 6.78165,-6.78165 3.74541,0 6.78166,3.03625 6.78166,6.78165 z"
         transform="translate(2.6201855,-1.2330259)" />
      <path
         sodipodi:nodetypes="cc"
         transform="translate(0,2.5390623e-6)"
         inkscape:connector-curvature="0"
         id="path13672"
         d="m 207.96529,109.6496 c 0,0 -20.56348,-0.51649 -40.24818,10.43366"
         style="fill:none;stroke:#000000;stroke-width:0.17716534;stroke-miterlimit:4;stroke-opacity:1;stroke-dasharray:none;marker-end:url(#Arrow1Lend)" />
      <g
         id="g4860"
         inkscape:transform-center-y="3.5527137e-15"
         inkscape:label="Gear32"
         transform="translate(398.23948,66.715956)"
         info="N:32; Pitch:11.1316275127; Pressure Angle: 20.0" />
    </g>
  </g>
</svg>
